<svg width="288" height="30" viewBox="0 0 288 30" fill="none" xmlns="http://www.w3.org/2000/svg">
<path d="M0 27.9189V2.3154H3.35683V13.5953H18.6894V2.3154H22.0462V27.9189H18.6894V16.281H3.35683V27.9189H0Z" fill="#192019"/>
<path d="M46.3142 2.3154V5.00109H32.7054V13.5953H45.6791V16.281H32.7054V25.2333H46.5863V27.9189H29.3485V2.3154H46.3142Z" fill="#192019"/>
<path d="M62.2172 25.2333C68.568 25.2333 71.7434 21.6285 71.7434 14.4189C71.7434 8.14035 68.568 5.00109 62.2172 5.00109H56.1386V25.2333H62.2172ZM52.7818 27.9189V2.3154H62.2172C70.8059 2.3154 75.1002 6.3499 75.1002 14.4189C75.1002 23.4189 70.8059 27.9189 62.2172 27.9189H52.7818Z" fill="#192019"/>
<path d="M100.711 26.9163C98.6181 27.7041 96.3621 28.098 93.9427 28.098C84.5436 28.098 79.844 23.6517 79.844 14.7591C79.844 6.34393 84.3803 2.13635 93.4528 2.13635C96.0536 2.13635 98.4729 2.49444 100.711 3.21063V6.07536C98.4729 5.23981 96.1746 4.82204 93.8157 4.82204C86.7391 4.82204 83.2009 8.13439 83.2009 14.7591C83.2009 21.8612 86.6847 25.4123 93.6524 25.4123C94.7653 25.4123 95.9992 25.2691 97.354 24.9826V16.281H100.711V26.9163Z" fill="#192019"/>
<path d="M124.344 2.3154V5.00109H110.735V13.5953H123.709V16.281H110.735V25.2333H124.616V27.9189H107.378V2.3154H124.344Z" fill="#192019"/>
<path d="M142.087 7.56534C138.814 4.56556 138.11 3.10636 138.038 0.286714C138.032 0.055454 137.775 -0.0818625 137.587 0.053581C133.169 3.2444 133.229 7.14334 133.977 9.01354C135.135 11.9099 140.639 15.3856 142.956 17.1235C146.156 19.5235 146.68 21.3109 146.719 24.5102C146.721 24.7164 146.931 24.8567 147.116 24.7648C150.641 23.0091 150.373 18.6978 149.907 16.8338C149.038 13.9374 145.289 10.5011 142.087 7.56535L142.087 7.56534Z" fill="#53BB3D"/>
<path d="M140.928 20.02C138.911 18.127 137.903 17.014 137.532 15.2594C137.488 15.0509 137.247 14.9445 137.077 15.0727C134.828 16.7668 134.674 18.8397 135.136 20.02C135.864 21.8843 138.892 23.8252 140.349 24.9438C142.31 26.4494 142.881 27.7371 142.949 29.7207C142.956 29.9278 143.168 30.0672 143.349 29.9667C145.416 28.8213 145.27 26.4065 144.983 25.2335C144.437 23.3691 142.942 21.9096 140.928 20.02Z" fill="#53BB3D"/>
<path d="M160.385 27.0237V23.9799C163.103 24.9348 166.039 25.4123 169.193 25.4123C173.651 25.4123 175.88 23.8009 175.88 20.5781C175.88 17.8327 174.237 16.46 170.95 16.46H167.616C162.191 16.46 159.479 14.1324 159.479 9.47723C159.479 4.58331 162.952 2.13635 169.899 2.13635C172.92 2.13635 175.729 2.49444 178.327 3.21063V6.25441C175.729 5.29949 172.92 4.82204 169.899 4.82204C165.187 4.82204 162.831 6.37377 162.831 9.47723C162.831 12.2226 164.426 13.5953 167.616 13.5953H170.95C176.472 13.5953 179.233 15.9229 179.233 20.5781C179.233 25.5913 175.886 28.098 169.193 28.098C166.039 28.098 163.103 27.7399 160.385 27.0237Z" fill="#192019"/>
<path d="M186.091 27.9189H182.612L193.612 2.3154H197.328L208.383 27.9189H204.668L201.315 19.8619H192.743L193.667 17.1762H200.191L195.352 5.57403L186.091 27.9189Z" fill="#192019"/>
<path d="M232.603 27.0237C230.368 27.7399 227.952 28.098 225.354 28.098C216.293 28.098 211.762 23.6517 211.762 14.7591C211.762 6.34393 216.293 2.13635 225.354 2.13635C227.952 2.13635 230.368 2.49444 232.603 3.21063V6.07536C230.368 5.23981 228.073 4.82204 225.717 4.82204C218.649 4.82204 215.115 8.13439 215.115 14.7591C215.115 21.8612 218.649 25.4123 225.717 25.4123C228.073 25.4123 230.368 24.9945 232.603 24.159V27.0237Z" fill="#192019"/>
<path d="M239.263 27.9189V2.3154H242.615V13.5953H257.929V2.3154H261.282V27.9189H257.929V16.281H242.615V27.9189H239.263Z" fill="#192019"/>
<path d="M268.213 27.0237V23.9799C270.932 24.9348 273.868 25.4123 277.021 25.4123C281.479 25.4123 283.709 23.8009 283.709 20.5781C283.709 17.8327 282.065 16.46 278.779 16.46H275.444C270.02 16.46 267.307 14.1324 267.307 9.47723C267.307 4.58331 270.781 2.13635 277.728 2.13635C280.748 2.13635 283.558 2.49444 286.155 3.21063V6.25441C283.558 5.29949 280.748 4.82204 277.728 4.82204C273.016 4.82204 270.66 6.37377 270.66 9.47723C270.66 12.2226 272.255 13.5953 275.444 13.5953H278.779C284.301 13.5953 287.061 15.9229 287.061 20.5781C287.061 25.5913 283.715 28.098 277.021 28.098C273.868 28.098 270.932 27.7399 268.213 27.0237Z" fill="#192019"/>
</svg>
